<svg xmlns="http://www.w3.org/2000/svg" width="1280" height="640" viewBox="0 0 1280 640" role="img" aria-labelledby="title desc">
  <title id="title">Skillgraph social preview</title>
  <desc id="desc">Skillgraph: See where your AI coding rules drift, break, and repeat.</desc>
  <defs>
    <linearGradient id="bg" x1="0" x2="1" y1="0" y2="1">
      <stop offset="0" stop-color="#111827"/>
      <stop offset="0.58" stop-color="#1f2937"/>
      <stop offset="1" stop-color="#0f766e"/>
    </linearGradient>
    <filter id="shadow" x="-20%" y="-20%" width="140%" height="140%">
      <feDropShadow dx="0" dy="18" stdDeviation="18" flood-color="#020617" flood-opacity="0.35"/>
    </filter>
  </defs>
  <rect width="1280" height="640" fill="url(#bg)"/>
  <g opacity="0.18" stroke="#ffffff" stroke-width="2">
    <path d="M112 474 C260 330 366 418 494 272 S796 132 1038 260"/>
    <path d="M176 164 C320 220 386 120 538 190 S826 388 1112 166"/>
    <circle cx="176" cy="164" r="10" fill="#ffffff"/>
    <circle cx="494" cy="272" r="10" fill="#ffffff"/>
    <circle cx="736" cy="198" r="10" fill="#ffffff"/>
    <circle cx="1038" cy="260" r="10" fill="#ffffff"/>
    <circle cx="260" cy="330" r="7" fill="#ffffff"/>
    <circle cx="826" cy="388" r="7" fill="#ffffff"/>
  </g>
  <g transform="translate(88 78)" filter="url(#shadow)">
    <rect width="1104" height="484" rx="24" fill="#f8fafc"/>
    <rect x="32" y="34" width="248" height="416" rx="16" fill="#e5e7eb"/>
    <rect x="312" y="34" width="760" height="416" rx="16" fill="#ffffff"/>
    <g fill="#0f172a">
      <text x="64" y="108" font-family="Inter, Arial, sans-serif" font-size="34" font-weight="800">Skillgraph</text>
      <text x="64" y="148" font-family="Inter, Arial, sans-serif" font-size="16" font-weight="700" fill="#475569">Drift detector</text>
    </g>
    <g font-family="Inter, Arial, sans-serif" font-size="20" font-weight="700">
      <rect x="64" y="196" width="168" height="42" rx="8" fill="#fee2e2"/>
      <text x="84" y="224" fill="#991b1b">3 stale copies</text>
      <rect x="64" y="256" width="176" height="42" rx="8" fill="#fef3c7"/>
      <text x="84" y="284" fill="#92400e">5 wrappers</text>
      <rect x="64" y="316" width="156" height="42" rx="8" fill="#dcfce7"/>
      <text x="84" y="344" fill="#166534">9 reusable</text>
    </g>
    <g stroke="#94a3b8" stroke-width="3" fill="none">
      <path d="M450 154 L598 242 L746 154 L910 266"/>
      <path d="M598 242 L496 344 L746 354"/>
      <path d="M746 154 L746 354"/>
    </g>
    <g font-family="Inter, Arial, sans-serif" font-size="18" font-weight="800">
      <circle cx="450" cy="154" r="42" fill="#dbeafe"/>
      <text x="415" y="160" fill="#1d4ed8">Codex</text>
      <circle cx="598" cy="242" r="54" fill="#ccfbf1"/>
      <text x="562" y="248" fill="#0f766e">Source</text>
      <circle cx="746" cy="154" r="44" fill="#fae8ff"/>
      <text x="710" y="160" fill="#86198f">Claude</text>
      <circle cx="910" cy="266" r="48" fill="#ffedd5"/>
      <text x="874" y="272" fill="#9a3412">Cursor</text>
      <circle cx="496" cy="344" r="40" fill="#fee2e2"/>
      <text x="465" y="350" fill="#991b1b">Drift</text>
      <circle cx="746" cy="354" r="44" fill="#dcfce7"/>
      <text x="713" y="360" fill="#166534">Reuse</text>
    </g>
  </g>
  <text x="88" y="594" font-family="Inter, Arial, sans-serif" font-size="52" font-weight="850" fill="#ffffff">See where your AI coding rules drift, break, and repeat.</text>
</svg>
